<?xml version="1.0" standalone="no"?>
<!DOCTYPE svg PUBLIC "-//W3C//DTD SVG 20010904//EN"
 "http://www.w3.org/TR/2001/REC-SVG-20010904/DTD/svg10.dtd">
<svg version="1.0" xmlns="http://www.w3.org/2000/svg"
 width="1000.000000pt" height="1000.000000pt" viewBox="0 0 1000.000000 1000.000000"
 preserveAspectRatio="xMidYMid meet">

<g transform="translate(0.000000,1000.000000) scale(0.100000,-0.100000)"
fill="#000000" stroke="none">
<path d="M0 5000 l0 -5000 5000 0 5000 0 0 5000 0 5000 -5000 0 -5000 0 0
-5000z m2777 1624 c-3 -3 -12 -4 -19 -1 -8 3 -5 6 6 6 11 1 17 -2 13 -5z
m-146 -117 c-14 -15 -21 -17 -21 -8 0 21 33 56 38 41 3 -7 -5 -22 -17 -33z
m209 21 c-1 -21 -32 -55 -37 -41 -7 19 -4 28 10 28 6 1 11 6 10 13 -2 7 2 12
7 12 6 0 10 -6 10 -12z m0 -93 c0 -9 -6 -12 -15 -9 -8 4 -12 10 -9 15 8 14 24
10 24 -6z m-386 -85 c21 0 28 -29 11 -53 -8 -12 -15 -44 -16 -72 -2 -80 -10
-101 -42 -97 -22 3 -27 -1 -27 -18 0 -11 -7 -23 -15 -26 -18 -7 -20 -35 -3
-52 9 -9 6 -12 -15 -12 -20 0 -27 -5 -27 -19 0 -11 -4 -23 -10 -26 -19 -12
-11 -33 10 -28 25 7 25 -2 -1 -38 -28 -39 -53 -39 -47 1 3 17 1 30 -4 30 -16
0 -8 23 22 60 17 21 30 49 30 63 0 13 15 44 33 68 48 62 59 87 52 110 -4 12
-1 51 6 87 10 53 14 62 20 44 5 -12 15 -22 23 -22z m165 -77 c0 -33 -1 -35 -9
-15 -8 20 -4 52 6 52 2 0 4 -17 3 -37z m-59 -43 c0 -23 -10 -26 -28 -8 -18 18
-15 28 8 28 13 0 20 -7 20 -20z m45 -76 c7 -42 -7 -59 -37 -43 -14 7 -17 17
-12 37 8 32 23 54 34 47 4 -3 11 -21 15 -41z m-98 -89 c1 -5 -1 -16 -6 -24 -8
-12 -12 -12 -25 -2 -24 20 -20 43 6 39 12 -2 23 -7 25 -13z m303 -50 c0 -18
-5 -25 -20 -25 -11 0 -20 5 -20 10 0 6 7 10 15 10 8 0 15 7 15 15 0 8 2 15 5
15 3 0 5 -11 5 -25z m-195 -35 c3 -6 -1 -13 -10 -16 -19 -8 -30 0 -20 15 8 14
22 14 30 1z m225 -16 c0 -8 -5 -12 -10 -9 -6 4 -8 11 -5 16 9 14 15 11 15 -7z
m-380 -34 c0 -4 -6 -15 -14 -26 -19 -25 -36 -8 -29 28 4 23 7 25 24 15 10 -6
19 -14 19 -17z m64 -67 c-17 -12 -19 -12 -22 2 -2 9 2 23 9 31 11 14 14 13 22
-2 7 -13 5 -21 -9 -31z m199 27 c20 -24 22 -44 4 -59 -10 -8 -18 -7 -32 3 -12
9 -15 15 -7 20 19 11 14 32 -10 44 l-23 11 25 0 c14 1 33 -8 43 -19z m-298
-26 c20 -13 22 -19 14 -42 -5 -14 -8 -31 -5 -39 7 -18 -1 -16 -23 6 -19 19
-34 91 -19 91 5 0 20 -7 33 -16z m415 -49 c0 -8 -6 -15 -13 -15 -7 0 -20 -22
-30 -49 -17 -49 -52 -75 -63 -46 -7 18 26 74 48 81 9 3 20 14 23 25 7 22 35
26 35 4z m-182 -7 c-6 -18 -25 -20 -31 -3 -5 10 0 15 14 15 12 0 19 -5 17 -12z
m-71 -50 c-3 -8 -6 -5 -6 6 -1 11 2 17 5 13 3 -3 4 -12 1 -19z m-497 -26 c0
-30 -16 -52 -37 -52 -18 0 -16 40 4 62 23 25 33 22 33 -10z m660 -72 c0 -15
-7 -20 -25 -20 -29 0 -33 15 -7 29 25 15 32 13 32 -9z m-230 -39 c0 -5 -7 -11
-15 -15 -9 -3 -15 0 -15 9 0 8 7 15 15 15 8 0 15 -4 15 -9z"/>
</g>
</svg>
